<svg width="128" height="23" viewBox="0 0 128 23" fill="none" xmlns="http://www.w3.org/2000/svg">
<rect width="16" height="5" transform="translate(0 14.5)" fill="#8CB6B4"/>
<rect width="16" height="5" transform="matrix(0 1 -1 0 16 3.5)" fill="#0F5E5B"/>
<path d="M29.8941 17.162C29.2341 17.162 28.6101 17.108 28.0221 17C27.4341 16.88 26.8941 16.712 26.4021 16.496C25.9101 16.268 25.4661 15.992 25.0701 15.668L25.6461 14.336C26.0421 14.636 26.4561 14.894 26.8881 15.11C27.3201 15.314 27.7821 15.47 28.2741 15.578C28.7661 15.674 29.3061 15.722 29.8941 15.722C30.9501 15.722 31.7241 15.53 32.2161 15.146C32.7201 14.762 32.9721 14.258 32.9721 13.634C32.9721 13.286 32.8941 12.992 32.7381 12.752C32.5821 12.512 32.3301 12.308 31.9821 12.14C31.6341 11.972 31.1781 11.834 30.6141 11.726L28.7061 11.33C27.5781 11.09 26.7321 10.694 26.1681 10.142C25.6161 9.59 25.3401 8.852 25.3401 7.928C25.3401 7.172 25.5381 6.512 25.9341 5.948C26.3421 5.372 26.8941 4.928 27.5901 4.616C28.2981 4.304 29.1141 4.148 30.0381 4.148C30.6141 4.148 31.1601 4.208 31.6761 4.328C32.1921 4.436 32.6721 4.61 33.1161 4.85C33.5601 5.078 33.9501 5.36 34.2861 5.696L33.7281 6.974C33.2001 6.494 32.6361 6.146 32.0361 5.93C31.4361 5.702 30.7641 5.588 30.0201 5.588C29.4081 5.588 28.8741 5.684 28.4181 5.876C27.9741 6.068 27.6261 6.338 27.3741 6.686C27.1341 7.022 27.0141 7.418 27.0141 7.874C27.0141 8.426 27.1821 8.858 27.5181 9.17C27.8541 9.482 28.4181 9.722 29.2101 9.89L31.1001 10.268C32.3001 10.52 33.1881 10.91 33.7641 11.438C34.3521 11.954 34.6461 12.65 34.6461 13.526C34.6461 14.246 34.4541 14.882 34.0701 15.434C33.6861 15.974 33.1341 16.4 32.4141 16.712C31.7061 17.012 30.8661 17.162 29.8941 17.162ZM40.697 17.162C39.749 17.162 38.933 16.982 38.249 16.622C37.577 16.25 37.055 15.728 36.683 15.056C36.311 14.372 36.125 13.568 36.125 12.644C36.125 11.732 36.305 10.934 36.665 10.25C37.037 9.566 37.541 9.032 38.177 8.648C38.825 8.264 39.563 8.072 40.391 8.072C41.195 8.072 41.879 8.246 42.443 8.594C43.019 8.942 43.457 9.44 43.757 10.088C44.069 10.724 44.225 11.492 44.225 12.392V12.986H37.403V11.942H43.145L42.839 12.194C42.839 11.258 42.635 10.538 42.227 10.034C41.819 9.518 41.219 9.26 40.427 9.26C39.851 9.26 39.359 9.398 38.951 9.674C38.543 9.938 38.231 10.316 38.015 10.808C37.799 11.288 37.691 11.846 37.691 12.482V12.59C37.691 13.31 37.805 13.916 38.033 14.408C38.273 14.888 38.615 15.254 39.059 15.506C39.503 15.746 40.049 15.866 40.697 15.866C41.213 15.866 41.711 15.788 42.191 15.632C42.683 15.464 43.145 15.206 43.577 14.858L44.081 15.992C43.685 16.352 43.175 16.64 42.551 16.856C41.939 17.06 41.321 17.162 40.697 17.162ZM49.0522 17.162C48.1162 17.162 47.4142 16.898 46.9462 16.37C46.4902 15.83 46.2622 15.056 46.2622 14.048V4.31H47.9002V13.922C47.9002 14.33 47.9542 14.678 48.0622 14.966C48.1822 15.242 48.3502 15.446 48.5662 15.578C48.7942 15.71 49.0762 15.776 49.4122 15.776C49.5442 15.776 49.6762 15.77 49.8082 15.758C49.9522 15.746 50.0842 15.722 50.2042 15.686L50.1682 17.018C49.9762 17.066 49.7842 17.102 49.5922 17.126C49.4122 17.15 49.2322 17.162 49.0522 17.162ZM54.4663 17.162C53.5303 17.162 52.8283 16.898 52.3603 16.37C51.9043 15.83 51.6763 15.056 51.6763 14.048V4.31H53.3143V13.922C53.3143 14.33 53.3683 14.678 53.4763 14.966C53.5963 15.242 53.7643 15.446 53.9803 15.578C54.2083 15.71 54.4903 15.776 54.8263 15.776C54.9583 15.776 55.0903 15.77 55.2223 15.758C55.3663 15.746 55.4983 15.722 55.6183 15.686L55.5823 17.018C55.3903 17.066 55.1983 17.102 55.0063 17.126C54.8263 17.15 54.6463 17.162 54.4663 17.162ZM56.9284 6.128V4.364H58.8904V6.128H56.9284ZM57.0904 17V8.234H58.7284V17H57.0904ZM61.3619 17V8.234H62.9639V10.142H62.7659C63.0179 9.458 63.4259 8.942 63.9899 8.594C64.5659 8.246 65.2199 8.072 65.9519 8.072C66.6599 8.072 67.2419 8.198 67.6979 8.45C68.1539 8.702 68.4959 9.092 68.7239 9.62C68.9519 10.136 69.0659 10.784 69.0659 11.564V17H67.4279V11.654C67.4279 11.138 67.3619 10.712 67.2299 10.376C67.0979 10.04 66.8879 9.794 66.5999 9.638C66.3239 9.482 65.9699 9.404 65.5379 9.404C65.0339 9.404 64.5899 9.512 64.2059 9.728C63.8219 9.944 63.5219 10.25 63.3059 10.646C63.1019 11.042 62.9999 11.504 62.9999 12.032V17H61.3619ZM75.6046 20.402C74.8246 20.402 74.0986 20.306 73.4266 20.114C72.7546 19.922 72.1546 19.628 71.6266 19.232L72.1486 18.044C72.5086 18.284 72.8626 18.482 73.2106 18.638C73.5706 18.806 73.9366 18.926 74.3086 18.998C74.6926 19.07 75.0886 19.106 75.4966 19.106C76.3486 19.106 76.9846 18.884 77.4046 18.44C77.8366 18.008 78.0526 17.372 78.0526 16.532V14.588H78.2146C78.0466 15.26 77.6686 15.794 77.0806 16.19C76.5046 16.586 75.8326 16.784 75.0646 16.784C74.2726 16.784 73.5826 16.604 72.9946 16.244C72.4066 15.872 71.9506 15.362 71.6266 14.714C71.3026 14.054 71.1406 13.292 71.1406 12.428C71.1406 11.552 71.3026 10.79 71.6266 10.142C71.9506 9.482 72.4066 8.972 72.9946 8.612C73.5826 8.252 74.2726 8.072 75.0646 8.072C75.8446 8.072 76.5226 8.27 77.0986 8.666C77.6746 9.062 78.0466 9.596 78.2146 10.268H78.0526V8.234H79.6546V16.316C79.6546 17.216 79.4986 17.972 79.1866 18.584C78.8866 19.196 78.4366 19.652 77.8366 19.952C77.2366 20.252 76.4926 20.402 75.6046 20.402ZM75.4246 15.488C76.2286 15.488 76.8646 15.212 77.3326 14.66C77.8006 14.108 78.0346 13.364 78.0346 12.428C78.0346 11.48 77.8006 10.736 77.3326 10.196C76.8646 9.644 76.2286 9.368 75.4246 9.368C74.6206 9.368 73.9786 9.644 73.4986 10.196C73.0306 10.736 72.7966 11.48 72.7966 12.428C72.7966 13.364 73.0306 14.108 73.4986 14.66C73.9786 15.212 74.6206 15.488 75.4246 15.488ZM87.1716 17V4.31H92.3016C93.2136 4.31 93.9876 4.46 94.6236 4.76C95.2596 5.06 95.7396 5.498 96.0636 6.074C96.3996 6.638 96.5676 7.328 96.5676 8.144C96.5676 8.96 96.3996 9.656 96.0636 10.232C95.7396 10.808 95.2596 11.246 94.6236 11.546C93.9876 11.846 93.2136 11.996 92.3016 11.996H88.8456V17H87.1716ZM88.8456 10.646H92.0856C93.0216 10.646 93.7236 10.436 94.1916 10.016C94.6716 9.584 94.9116 8.96 94.9116 8.144C94.9116 7.328 94.6716 6.716 94.1916 6.308C93.7236 5.888 93.0216 5.678 92.0856 5.678H88.8456V10.646ZM101.738 17.162C100.874 17.162 100.124 16.976 99.4882 16.604C98.8522 16.232 98.3602 15.704 98.0122 15.02C97.6642 14.336 97.4902 13.532 97.4902 12.608C97.4902 11.684 97.6642 10.886 98.0122 10.214C98.3602 9.53 98.8522 9.002 99.4882 8.63C100.124 8.258 100.874 8.072 101.738 8.072C102.602 8.072 103.352 8.258 103.988 8.63C104.624 9.002 105.116 9.53 105.464 10.214C105.812 10.886 105.986 11.684 105.986 12.608C105.986 13.532 105.812 14.336 105.464 15.02C105.116 15.704 104.624 16.232 103.988 16.604C103.352 16.976 102.602 17.162 101.738 17.162ZM101.738 15.866C102.53 15.866 103.16 15.59 103.628 15.038C104.096 14.474 104.33 13.664 104.33 12.608C104.33 11.552 104.096 10.748 103.628 10.196C103.16 9.644 102.53 9.368 101.738 9.368C100.958 9.368 100.328 9.644 99.8482 10.196C99.3802 10.748 99.1462 11.552 99.1462 12.608C99.1462 13.664 99.3802 14.474 99.8482 15.038C100.328 15.59 100.958 15.866 101.738 15.866ZM107.923 6.128V4.364H109.885V6.128H107.923ZM108.085 17V8.234H109.723V17H108.085ZM112.356 17V8.234H113.958V10.142H113.76C114.012 9.458 114.42 8.942 114.984 8.594C115.56 8.246 116.214 8.072 116.946 8.072C117.654 8.072 118.236 8.198 118.692 8.45C119.148 8.702 119.49 9.092 119.718 9.62C119.946 10.136 120.06 10.784 120.06 11.564V17H118.422V11.654C118.422 11.138 118.356 10.712 118.224 10.376C118.092 10.04 117.882 9.794 117.594 9.638C117.318 9.482 116.964 9.404 116.532 9.404C116.028 9.404 115.584 9.512 115.2 9.728C114.816 9.944 114.516 10.25 114.3 10.646C114.096 11.042 113.994 11.504 113.994 12.032V17H112.356ZM126.293 17.162C125.225 17.162 124.427 16.886 123.899 16.334C123.371 15.77 123.107 14.966 123.107 13.922V9.494H121.397V8.234H123.107V5.57H124.745V8.234H127.499V9.494H124.745V13.778C124.745 14.438 124.883 14.936 125.159 15.272C125.435 15.608 125.891 15.776 126.527 15.776C126.719 15.776 126.905 15.758 127.085 15.722C127.277 15.674 127.457 15.626 127.625 15.578L127.895 16.802C127.727 16.91 127.487 16.994 127.175 17.054C126.875 17.126 126.581 17.162 126.293 17.162Z" fill="#232324"/>
</svg>
